<?xml version="1.0" encoding="utf-8"?>
<svg width="55px" height="55px" viewBox="0 0 55 55" version="1.1" xmlns:xlink="http://www.w3.org/1999/xlink" xmlns="http://www.w3.org/2000/svg">
  <g id="warning">
    <path d="M46.6303 0L8.36958 0C3.7543 0 0 3.75431 0 8.3696L0 34.674C0 39.2891 3.7543 43.0434 8.36958 43.0434L34.1789 43.0434L45.7839 54.6508C46.0135 54.878 46.3196 55 46.6304 55C46.7834 55 46.9389 54.969 47.0872 54.9091C47.5343 54.7249 47.8261 54.2873 47.8261 53.8043L47.8261 42.9597C51.877 42.3763 55 38.8826 55 34.6739L55 8.3696C54.9999 3.75431 51.2455 0 46.6303 0ZM52.6085 34.6739C52.6085 37.9715 49.9255 40.6521 46.6303 40.6521C45.9703 40.6521 45.4346 41.1878 45.4346 41.8478L45.4346 50.9179L35.5203 41.0012C35.2956 40.7789 34.9918 40.6521 34.6738 40.6521L8.36958 40.6521C5.07441 40.6521 2.39137 37.9714 2.39137 34.6739L2.39137 8.3696C2.39137 5.07195 5.07441 2.39138 8.36958 2.39138L46.6303 2.39138C49.9255 2.39138 52.6085 5.07207 52.6085 8.3696L52.6085 34.6739Z" id="Shape" fill="#75808A" stroke="none" />
    <path d="M27.5 29C25.5703 29 24 30.5703 24 32.5C24 34.4297 25.5703 36 27.5 36C29.4297 36 31 34.4297 31 32.5C31 30.5703 29.4297 29 27.5 29ZM27.5 33.6667C26.856 33.6667 26.3333 33.1417 26.3333 32.5C26.3333 31.8583 26.856 31.3333 27.5 31.3333C28.144 31.3333 28.6667 31.8583 28.6667 32.5C28.6667 33.1417 28.144 33.6667 27.5 33.6667Z" id="Shape" fill="#75808A" stroke="none" />
    <path d="M31.9951 8.13522C31.2876 7.41325 30.2874 7 29.2498 7L26.7496 7C25.712 7 24.7144 7.41325 24.0067 8.13522C23.2992 8.85485 22.9366 9.83097 23.0091 10.8333L24.0667 22.5349C24.2117 24.4777 25.932 26 27.9997 26C30.0498 26 31.7701 24.4776 31.9126 22.5538L32.9903 10.8166C33.0653 9.83342 32.7027 8.85729 31.9951 8.13522ZM30.5 10.629L29.4199 22.3687C29.3674 23.0741 28.7424 23.625 27.9797 23.625C27.2347 23.625 26.6121 23.0741 26.557 22.3496L25.5019 10.648C25.4769 10.3131 25.5943 9.99485 25.8344 9.7526C26.0744 9.51035 26.3994 9.37497 26.7495 9.37497L29.2498 9.37497C29.5999 9.37497 29.9249 9.51035 30.1649 9.7526C30.405 9.99485 30.5225 10.3131 30.5 10.629Z" id="Shape" fill="#75808A" stroke="none" />
  </g>
</svg>