<svg xmlns="http://www.w3.org/2000/svg" width="26" height="26" viewBox="0 0 26 26">
    <g fill-rule="nonzero" fill="none">
        <circle fill="#F2F5F6" cx="13" cy="13" r="13"/>
        <g fill="#0033AD">
            <path d="M7.128 12.926a1.751 1.751 0 0 0 1.65 1.844h.104c.97 0 1.754-.783 1.747-1.754 0-.97-.784-1.754-1.754-1.747a1.75 1.75 0 0 0-1.747 1.657zM.597 12.475a.566.566 0 1 0-.062 1.13.566.566 0 0 0 .062-1.13zM7.017 2.762a.572.572 0 0 0 .25-.763.572.572 0 0 0-.763-.25.564.564 0 0 0-.25.756.56.56 0 0 0 .763.257c-.007 0 0 0 0 0zM8.792 5.861A.875.875 0 0 0 9.18 4.69a.875.875 0 0 0-1.172-.388.875.875 0 0 0-.388 1.172.875.875 0 0 0 1.172.388zM2.815 7.99a.725.725 0 0 0 .999-.208.725.725 0 0 0-.208-.999.725.725 0 0 0-.999.208.718.718 0 0 0 .208.999zM3.876 12.163a.871.871 0 0 0-.922.825.871.871 0 0 0 .825.922.875.875 0 0 0 .097-1.747zM2.912 18.035a.723.723 0 1 0 .971.32.725.725 0 0 0-.97-.32zM6.31 10.354a1.02 1.02 0 0 0 1.42-.298 1.02 1.02 0 0 0-.297-1.422 1.02 1.02 0 0 0-1.421.298c-.312.472-.18 1.11.298 1.422zM17.09 5.792a.88.88 0 0 0 1.214-.25.88.88 0 0 0-.25-1.213.88.88 0 0 0-1.213.25c-.27.409-.16.95.25 1.213zM18.88 2.707c.263.173.61.097.783-.167a.563.563 0 0 0-.167-.783.567.567 0 0 0-.783.16.584.584 0 0 0 .166.79zM17.222 11.255a1.747 1.747 0 0 0-1.844 1.65 1.747 1.747 0 0 0 1.65 1.844h.097a1.75 1.75 0 0 0 1.747-1.754 1.737 1.737 0 0 0-1.65-1.74zM9.367 10.229a1.75 1.75 0 0 0 3.314-.79 1.747 1.747 0 0 0-2.537-1.567 1.757 1.757 0 0 0-.777 2.357zM23.088 7.99a.723.723 0 0 0 .312-.971.723.723 0 0 0-1.29.652c.187.353.617.499.978.319zM18.65 8.544a1.028 1.028 0 1 0 1.38.458 1.034 1.034 0 0 0-1.38-.458zM12.93 2.443a.73.73 0 0 0 .763-.68.726.726 0 0 0-.68-.762.725.725 0 0 0-.762.673.733.733 0 0 0 .68.77zM12.924 6.97A1.02 1.02 0 0 0 14.005 6a1.02 1.02 0 0 0-.97-1.082 1.02 1.02 0 0 0-1.082.97 1.025 1.025 0 0 0 .97 1.082zM7.35 17.48a1.028 1.028 0 1 0-.923-1.837 1.028 1.028 0 0 0 .923 1.838zM13.59 8.475a1.746 1.746 0 0 0 .505 2.42 1.746 1.746 0 0 0 2.42-.507 1.746 1.746 0 0 0-1.463-2.704c-.59 0-1.137.299-1.463.79zM16.633 15.796a1.747 1.747 0 0 0-2.35-.776 1.747 1.747 0 0 0-.777 2.35 1.747 1.747 0 0 0 2.35.776c.86-.43 1.214-1.47.784-2.336 0-.007 0-.007-.007-.014zM19.69 15.671a1.02 1.02 0 0 0-1.42.298 1.02 1.02 0 0 0 .297 1.422 1.02 1.02 0 0 0 1.421-.298c.312-.472.18-1.11-.298-1.422zM23.046 13.044a.871.871 0 0 0-.825-.922.871.871 0 0 0-.922.825.871.871 0 0 0 .825.922.88.88 0 0 0 .922-.825zM25.466 12.42a.566.566 0 1 0 .534.596.57.57 0 0 0-.534-.596zM23.185 18.035a.725.725 0 0 0-.999.208.725.725 0 0 0 .208.999.725.725 0 0 0 .999-.208.718.718 0 0 0-.208-.999zM7.114 23.318a.567.567 0 0 0-.784.16.567.567 0 0 0 .16.783c.263.174.61.097.783-.16a.557.557 0 0 0-.16-.783zM18.983 23.263a.572.572 0 0 0-.25.763.572.572 0 0 0 .763.25.564.564 0 0 0 .25-.757.56.56 0 0 0-.763-.256c.007 0 0 0 0 0zM12.41 17.55a1.755 1.755 0 0 0-.505-2.426 1.755 1.755 0 0 0-2.427.506 1.749 1.749 0 0 0 1.463 2.71 1.725 1.725 0 0 0 1.47-.79zM8.91 20.233a.88.88 0 0 0-1.214.25.88.88 0 0 0 .25 1.213.88.88 0 0 0 1.213-.25.868.868 0 0 0-.25-1.213zM12.993 23.582a.73.73 0 0 0-.763.68.726.726 0 0 0 .68.762.725.725 0 0 0 .763-.673.733.733 0 0 0-.68-.77zM13 19.055a1.02 1.02 0 0 0-1.082.97 1.02 1.02 0 0 0 .971 1.082 1.025 1.025 0 0 0 1.082-.97A1.025 1.025 0 0 0 13 19.054zM17.208 20.164a.876.876 0 0 0 .798 1.56.875.875 0 0 0 .388-1.172.885.885 0 0 0-1.186-.388z"/>
        </g>
    </g>
</svg>