<svg xmlns="http://www.w3.org/2000/svg" width="26" height="26" viewBox="0 0 26 26">
    <g fill-rule="nonzero" fill="none">
        <ellipse fill="#56A10B" cx="12.967" cy="13" rx="12.967" ry="13"/>
        <path d="m19.05 13.54-.008-.013-.001-.003-.013-.042v-.001l-.001-.001v-.001l-.001-.002h-.001v-.002l-.002-.002a2.656 2.656 0 0 0-.866-1.3l-.038-.03-.016-.012-.013-.01-.005-.004-.011-.008-.006-.004-.011-.008-.006-.005-.012-.009-.006-.004-.012-.01-.007-.003-.013-.009-.006-.004-.008-.011-.007-.005-.013-.009-.007-.005-.013-.009-.007-.004-.013-.01-.007-.004-.014-.01-.007-.005-.015-.01-.007-.004-.015-.01-.007-.004-.015-.01-.007-.004-.015-.01-.008-.004-.015-.01-.008-.003-.016-.009-.008-.004-.017-.01-.008-.004-.017-.01-.008-.004-.017-.01-.009-.005-.016-.01-.009-.006-.018-.009-.009-.005-.017-.01-.012-.006-.001-.001-.027-.015a3.69 3.69 0 0 0-1.184-.375c.116-.124.222-.258.318-.4l.015-.022.008-.011.01-.015.004-.007.01-.015.004-.007.01-.015.004-.007.01-.015.004-.007.01-.016.005-.006.008-.015.005-.007.008-.014.003-.007.008-.014.004-.007.008-.014.004-.007.007-.013.004-.007.007-.014.004-.006.007-.014.004-.006.007-.013.004-.007.008-.012.004-.007.006-.012.004-.006.007-.012.002-.006.007-.012.003-.006.006-.012.003-.006.007-.012.002-.006.006-.011.002-.006.006-.012.002-.006.006-.011.002-.006.006-.013.008-.018.017-.039c.178-.44.22-.922.12-1.385v-.001l-.002-.002V9.09l-.001-.002-.001-.001v-.001l-.001-.001a.439.439 0 0 0-.01-.039v-.005h-.001l-.005-.01c-.004-.018-.008-.036-.014-.055-.003-.018-.01-.036-.014-.054l-.007-.012-.001-.002-.011-.038h-.001v-.002l-.001-.001v-.001l-.002-.001v-.003a2.36 2.36 0 0 0-.771-1.155v-.001c-.011-.01-.023-.017-.033-.026l-.015-.011-.011-.009-.006-.004-.01-.008-.005-.004-.01-.008-.005-.004-.01-.007-.006-.005-.012-.008-.005-.004-.011-.009-.006-.004-.011-.008-.007-.004-.011-.008-.007-.004-.011-.008-.007-.004-.012-.008-.007-.004-.013-.007-.006-.004-.013-.008-.006-.004-.013-.007-.006-.004L16 7.504l-.007-.004-.013-.009-.006-.003-.015-.009-.006-.003-.015-.009-.007-.004-.014-.009-.007-.004-.014-.009-.007-.004-.015-.01-.008-.004-.016-.01-.008-.003-.016-.01-.008-.003-.016-.009-.012-.005v-.001l-.024-.013c-.709-.37-1.608-.48-2.513-.248l-.236.061-.596-2.323-1.38.355.592 2.316-1.104.284-.594-2.309-1.38.355.593 2.316-2.846.734.379 1.475 1.147-.295a.708.708 0 0 1 .864.512l1.592 6.21a.475.475 0 0 1-.34.578l-1.005.26.059 1.754 2.842-.732.602 2.312 1.38-.356-.595-2.317 1.104-.284.594 2.317 1.38-.356-.597-2.326.574-.15c1.02-.263 1.845-.862 2.344-1.61l.017-.025h.001l.009-.012.01-.017.006-.009.01-.017.006-.01.01-.016.005-.009.01-.016.004-.009.01-.016.004-.008.01-.017.004-.008.009-.017.004-.008.008-.016.005-.008.009-.015.004-.008.01-.015.004-.008.008-.015.004-.008.008-.014.004-.008.008-.015.004-.007.008-.015.003-.007.007-.014.004-.006.007-.014.004-.007.007-.014.004-.006.006-.014.004-.006.007-.014.004-.007.007-.013.004-.007.006-.013.004-.006.006-.014.002-.005.007-.015.008-.02c.007-.014.014-.028.019-.043v-.001c.2-.494.247-1.037.135-1.558v-.001l-.001-.001v-.001l-.001-.002h-.001v-.002h-.001v-.002l-.01-.042v-.003l-.001-.001-.001-.001v-.002h-.001v-.002l-.001-.001-.001-.001v-.001l-.001-.001v-.001l-.002-.002v-.002l-.003-.004-.016-.061c0-.013-.004-.034-.005-.058zm-8.11-4.154c.236-.06 1.21-.305 1.53-.39.51-.13 1.014-.08 1.407.11l.013.006.005.003.009.004.003.002.008.004.004.003.008.004.004.002.008.004.004.002.008.005.004.002.008.004.004.002.008.005.004.002.008.004.004.002.008.005.004.002.007.005.004.002.007.005.004.002.007.005.003.002.007.004.004.002.006.004.004.002.006.004.004.002.007.004.003.002.007.004.003.003.006.003.002.002.007.004.002.002.006.003.003.002.006.004.002.002.006.004.002.002.006.003.01.006c.006.004.011.01.018.013.2.152.348.364.422.606l.001.003.007.02v.001l.004.007.008.029c.003.01.005.02.006.031l.003.007a.1.1 0 0 0 .006.021l.002.004a1.2 1.2 0 0 1-.079.734l-.009.02-.005.01-.003.007-.001.004-.003.005-.001.004-.004.006-.001.004-.004.006-.001.004-.004.006-.001.003-.004.007v.003l-.005.006v.004l-.005.006-.002.004-.004.007-.002.004-.004.006-.002.004-.004.006-.002.004-.005.007-.002.004-.005.007-.002.004-.005.007-.002.004-.005.007-.002.003-.005.007-.002.004-.005.007-.002.004-.005.007-.002.004-.005.007-.002.004-.006.007-.002.004-.006.008-.003.004-.006.007-.002.004-.006.008-.004.005-.008.012c-.254.356-.67.644-1.18.775-.322.083-1.293.338-1.528.399l-.723-2.812zm5.395 4.76.004.007v.001l.005.022v.002h.001v.002l.001.001c.055.272.016.555-.11.802l-.013.023-.006.01-.004.008-.002.004-.004.007-.002.004-.004.006-.002.004-.005.007-.002.004-.005.007-.002.003-.005.007-.003.004-.004.007-.003.004-.004.007-.003.004-.005.007-.002.004-.005.007-.002.004-.005.007-.002.004-.005.007-.002.003-.006.008-.002.004-.006.007-.002.004-.006.009-.002.004-.005.009-.002.003-.006.01-.003.004-.005.009-.004.004-.006.01-.004.004-.006.01-.003.004-.007.01-.003.004-.007.01-.003.004-.007.01-.005.005-.01.013c-.309.395-.806.72-1.41.874l-1.811.472-.784-3.055c.28-.073 1.434-.363 1.814-.462.604-.155 1.197-.111 1.655.085l.015.006.008.004.01.004.006.001.01.005.005.002.01.004.005.002.01.005.003.002.01.005.004.002.01.005.004.002.01.005.004.002.008.004.004.002.008.005.004.002.008.004.004.002.008.004.003.003.009.004.003.002.008.004.004.002.008.005.004.002.008.004.004.002.008.005.004.002.007.005.004.002.007.005.004.002.007.005.004.002.007.005.003.002.007.005.004.002.007.004.004.002.006.005.01.007.022.014c.23.156.402.386.485.652l.003.004.007.02v.002l.004.007.008.031c.006.003.007.015.005.03z" fill="#FFF"/>
    </g>
</svg>