<svg xmlns="http://www.w3.org/2000/svg" width="26" height="26" viewBox="0 0 26 26">
    <g fill="none" fill-rule="evenodd">
        <path d="M13 0c7.18 0 13 5.82 13 13s-5.82 13-13 13S0 20.18 0 13 5.82 0 13 0z" fill="#F0B90B"/>
        <path d="m7.145 13 .01 3.438 2.92 1.718v2.013l-4.63-2.716v-5.458L7.145 13zm0-3.438v2.004l-1.701-1.007V8.556l1.7-1.006 1.71 1.006-1.71 1.007zm4.15-1.006 1.7-1.006 1.71 1.006-1.71 1.007-1.7-1.007z" fill="#FFF" fill-rule="nonzero"/>
        <path d="M8.374 15.725v-2.012l1.701 1.006v2.003l-1.701-.997zm2.92 3.152 1.702 1.006 1.71-1.006v2.003l-1.71 1.006-1.701-1.006v-2.003zm5.85-10.32 1.702-1.007 1.71 1.006v2.003l-1.71 1.007V9.562l-1.701-1.006zm1.702 7.88.01-3.437 1.7-1.006v5.458l-4.63 2.716v-2.013l2.92-1.718z" fill="#FFF" fill-rule="nonzero"/>
        <path fill="#FFF" fill-rule="nonzero" d="m17.626 15.725-1.701.997v-2.003l1.701-1.006z"/>
        <path d="m17.626 10.275.01 2.012-2.93 1.72v3.445l-1.7.997-1.702-.997v-3.446l-2.929-1.719v-2.012l1.708-1.006 2.912 1.727 2.929-1.727 1.71 1.006h-.008zM8.374 6.839l4.622-2.725 4.63 2.725-1.701 1.006-2.93-1.727-2.92 1.727-1.701-1.006z" fill="#FFF" fill-rule="nonzero"/>
    </g>
</svg>