<svg xmlns="http://www.w3.org/2000/svg" width="26" height="26" viewBox="0 0 26 26">
    <g fill-rule="nonzero" fill="none">
        <circle fill="#F7931A" cx="13" cy="13" r="13"/>
        <path d="M18.841 11.391c.255-1.703-1.042-2.618-2.815-3.23l.575-2.306-1.404-.35-.56 2.246c-.37-.092-.749-.179-1.126-.265l.564-2.261-1.403-.35-.576 2.306c-.305-.07-.605-.138-.897-.21l.002-.008-1.937-.483-.373 1.5s1.042.239 1.02.253c.568.142.671.519.654.817L9.91 11.68c.039.01.09.024.146.046l-.149-.036-.918 3.682c-.07.172-.246.432-.644.333.014.02-1.02-.255-1.02-.255l-.698 1.608 1.828.456c.34.085.673.174 1.001.258l-.581 2.334 1.403.35.575-2.31c.384.105.756.2 1.12.291l-.574 2.298 1.404.35.582-2.329c2.394.453 4.195.27 4.953-1.896.611-1.744-.03-2.75-1.29-3.406.917-.211 1.609-.815 1.793-2.062zm-3.209 4.5c-.434 1.744-3.37.801-4.322.565l.771-3.092c.952.238 4.005.708 3.551 2.527zm.435-4.525c-.396 1.587-2.84.78-3.633.583l.699-2.804c.793.198 3.346.566 2.934 2.221z" fill="#FFF"/>
    </g>
</svg>