<svg xmlns="http://www.w3.org/2000/svg" width="26" height="26" viewBox="0 0 26 26">
    <g fill="none" fill-rule="evenodd">
        <path d="M13 0c7.18 0 13 5.82 13 13s-5.82 13-13 13S0 20.18 0 13 5.82 0 13 0z" fill="#F0B90B"/>
        <path d="m19.022 11.046 1.976 2.024-7.976 7.976-1.976-1.976 7.976-8.024zm-3-3 1.976 2.024-7.976 7.976-1.976-1.976 7.976-8.024zm-9 3 1.976 2.024-1.976 1.976-1.976-1.976 1.976-2.024zm6-6 1.976 2.024-4.976 4.976-1.976-1.976 4.976-5.024z" fill="#FFFEFC" fill-rule="nonzero"/>
    </g>
</svg>