<svg xmlns="http://www.w3.org/2000/svg" width="26" height="26" viewBox="0 0 26 26">
    <g fill-rule="nonzero" fill="none">
        <circle fill="#C2A633" cx="13" cy="13" r="13"/>
        <path d="M6.803 11.56H8.19V6.412c1.332-.2 2.678-.299 4.025-.293 2.48 0 4.12.428 5.39 1.386 1.367 1.017 2.203 2.696 2.203 5.019 0 2.559-.898 4.317-2.168 5.392-1.389 1.143-3.492 1.713-6.07 1.713a25.998 25.998 0 0 1-3.38-.195v-5.551H6.803V11.56zm6.973 2.323h-2.61v3.36c.345.034.69.047 1.036.039 2.735 0 4.473-1.445 4.473-4.668 0-2.852-1.582-4.2-4.16-4.2a6.45 6.45 0 0 0-1.355.118v3.028h2.616v2.323z" fill="#FFF"/>
    </g>
</svg>