<svg xmlns="http://www.w3.org/2000/svg"><symbol id="88051"><g xmlns="http://www.w3.org/2000/svg" fill="none" fill-rule="evenodd">
        <circle fill="#1A1C1F" cx="10" cy="10" r="10"></circle>
        <path d="M11.02 5v10h.8V5.761h2.165c-.394 1.234-.8 2.307-1.217 3.207.958 1.13 1.443 2.053 1.454 2.756-.011.37-.09.623-.225.762-.124.138-.429.207-.902.23-.203 0-.451-.023-.733-.046l.248.796c.97 0 1.612-.138 1.928-.404.304-.242.462-.692.462-1.338-.011-.715-.474-1.637-1.387-2.756.44-1.027.857-2.146 1.24-3.345V5H11.02zm-1.003 5.213h-4.33v4.775h.779v-.692h2.762v.646h.789v-4.729zm-3.551 3.31v-2.525h2.762v2.526H6.466zm.428-7.716c-.135.796-.338 1.442-.586 1.938-.293.52-.733.992-1.308 1.43l.474.612c.676-.508 1.183-1.073 1.521-1.707.271-.566.497-1.327.654-2.273h1.77c-.022 1.315-.079 2.134-.146 2.446-.08.311-.27.472-.564.496-.248-.012-.552-.035-.936-.058l.203.738c.35.023.654.046.914.046.473 0 .8-.207 1.003-.623.203-.426.304-1.707.304-3.829H5.293v.784h1.601z" fill="#FFF" fill-rule="nonzero"></path>
    </g></symbol><use xlink:href="#88051"></use></svg>