<svg xmlns:xlink="http://www.w3.org/1999/xlink" xmlns="http://www.w3.org/2000/svg" width="26px" height="26px" viewBox="0 0 26 26" version="1.1">
  <g id="trx-icon">
    <path d="M13 26C20.1797 26 26 20.1797 26 13C26 5.8203 20.1797 0 13 0C5.8203 0 0 5.8203 0 13C0 20.1797 5.8203 26 13 26Z" id="Oval" fill="#EB0029" stroke="none"/>
    <path d="M18.9459 7.72854L5.2 5.2L12.4339 23.4L22.5115 11.1205L18.9459 7.72854ZM18.7267 8.8432L20.8303 10.8418L15.0789 11.8834L18.7267 8.8432ZM13.8295 11.6755L7.76737 6.64814L17.6737 8.47088L13.8295 11.6755ZM13.3955 12.5663L12.4087 20.7367L7.07984 7.32425L13.3955 12.5663ZM14.3091 12.998L20.6773 11.8446L13.3749 20.7435L14.3091 12.998Z" id="Shape" fill="#FFFFFF" stroke="none"/>
  </g>
</svg>