<svg xmlns="http://www.w3.org/2000/svg" width="26" height="26" viewBox="0 0 26 26">
    <g fill-rule="nonzero" fill="none">
        <path d="M13 0c7.179 0 13 5.821 13 13s-5.821 13-13 13S0 20.183 0 13 5.821 0 13 0z" fill="#26A17B"/>
        <path d="M14.83 11.55V9.616h4.424V6.668H7.211v2.947h4.424v1.936c-3.593.166-6.298.877-6.298 1.73 0 .851 2.705 1.563 6.298 1.729v6.193h3.2V15.01c3.589-.166 6.286-.878 6.286-1.73-.004-.852-2.701-1.563-6.29-1.73zm.004 2.936c-.09.004-.552.033-1.585.033-.827 0-1.405-.022-1.61-.033v.004c-3.175-.14-5.547-.693-5.547-1.354 0-.661 2.368-1.214 5.546-1.354v2.152c.21.014.802.05 1.625.05.986 0 1.48-.04 1.575-.05v-2.16c3.17.141 5.536.694 5.536 1.355-.008.66-2.373 1.213-5.54 1.357" fill="#FFF"/>
    </g>
</svg>