<svg xmlns="http://www.w3.org/2000/svg" width="26" height="26" viewBox="0 0 26 26">
    <path d="M13 0C5.82 0 0 5.82 0 13s5.82 13 13 13 13-5.82 13-13S20.18 0 13 0zm9.389 10.647-.683.348c-.52.265-.829.816-.785 1.397a7.945 7.945 0 0 1-12.589 7.036l1.404-.715.08-.042a6.504 6.504 0 0 0 9.63-6.524L3.61 20.214v-1.621L22.39 9.029v1.618zM3.61 16.974V15.35l.683-.348c.519-.265.829-.816.785-1.397a7.945 7.945 0 0 1 12.588-7.034l-.194.098-1.294.659a6.505 6.505 0 0 0-9.62 6.52l15.83-8.066v1.623L3.61 16.974z" fill="#000" fill-rule="nonzero"/>
</svg>