<svg xmlns="http://www.w3.org/2000/svg" width="26" height="26" viewBox="0 0 26 26">
    <path d="M13 0C5.819 0 0 5.819 0 13s5.819 13 13 13 13-5.819 13-13S20.181 0 13 0zM6.424 5.422c.973.979 1.963 1.934 2.936 2.913.42.396.821.815 1.235 1.223a3.37 3.37 0 0 0 3.762.745 3.524 3.524 0 0 0 1.014-.681c.192-.21.407-.402.605-.612.222-.21.431-.442.658-.646.32-.315.63-.64.956-.944.658-.664 1.333-1.316 1.992-1.98l.034-.018h2.738c-.326.32-.635.647-.967.956-.786.792-1.584 1.572-2.376 2.364-.379.35-.722.728-1.101 1.084-.42.42-.845.838-1.264 1.258-.408.384-.88.705-1.392.938-1.584.745-3.535.634-5.02-.286a5.444 5.444 0 0 1-1.136-.932c-.373-.36-.734-.745-1.113-1.095-.28-.274-.541-.553-.827-.815a34.058 34.058 0 0 0-.92-.915c-.85-.85-1.707-1.695-2.563-2.545h2.75v-.012zm13.274 15.569a234.38 234.38 0 0 1-2.09-2.08c-.38-.337-.711-.721-1.09-1.06l-.891-.89c-.25-.257-.507-.519-.816-.7a3.345 3.345 0 0 0-4.094.38c-.408.407-.816.809-1.217 1.217-.373.343-.717.722-1.09 1.065-.693.693-1.386 1.387-2.085 2.074H3.576c.216-.221.437-.431.647-.652.436-.408.838-.845 1.275-1.253 1.113-1.118 2.243-2.219 3.36-3.331.228-.21.438-.437.665-.64a5.263 5.263 0 0 1 2.446-1.207c.291-.052.588-.087.885-.104.163-.012.332-.006.495.017a5.248 5.248 0 0 1 3.39 1.514c.291.292.589.577.88.868.273.286.57.548.844.833.303.309.618.6.92.909.7.704 1.41 1.392 2.109 2.096.326.303.64.63.955.95h-2.749v-.006z" fill="#000" fill-rule="nonzero"/>
</svg>