<svg version="1.2" xmlns="http://www.w3.org/2000/svg" viewBox="0 0 100 100" width="100" height="100">
	<title>Screenshot 2023-08-07 at 15</title>
	<style>
		.s0 { fill: #778089 } 
	</style>
	<path id="Layer" class="s0" d="m94.7 100h-0.8l-43.7-43.6q-0.4-0.4-0.7 0l-43.8 43.6h-0.8l-4.9-5.1q-0.4-0.4 0-0.8l43.5-43.5q0.6-0.6 0-1.2l-43.4-43.5q-0.5-0.4 0-0.8l4.8-4.9q0.5-0.4 0.9 0l43.7 43.6q0.4 0.4 0.8 0l43.6-43.6q0.5-0.5 0.9 0l5 5q0.4 0.4 0 0.8l-43.5 43.7q-0.4 0.3 0 0.7l43.5 43.8q0.1 0.1 0.1 0.2 0.1 0.1 0.1 0.3 0 0.1-0.1 0.2 0 0.1-0.1 0.2z"/>
</svg>